<svg xmlns="http://www.w3.org/2000/svg" width="151" height="146" viewBox="0 0 151 146">
  <g id="Path_9" data-name="Path 9" fill="#171d67">
    <path d="M 119 145.5 L 32 145.5 C 27.74729919433594 145.5 23.62210083007813 144.6672210693359 19.73893928527832 143.0247802734375 C 15.98799991607666 141.4382629394531 12.61919975280762 139.1669464111328 9.726140022277832 136.2738647460938 C 6.833079814910889 133.3807983398438 4.561739921569824 130.0119934082031 2.975219964981079 126.2610778808594 C 1.332780003547668 122.3779220581055 0.5 118.2527008056641 0.5 114 L 0.5 32 C 0.5 27.74729919433594 1.332780003547668 23.62210083007813 2.975219964981079 19.73893928527832 C 4.561739921569824 15.98799991607666 6.833079814910889 12.61919975280762 9.726140022277832 9.726140022277832 C 12.61919975280762 6.833079814910889 15.98799991607666 4.561739921569824 19.73893928527832 2.975219964981079 C 23.62210083007813 1.332780003547668 27.74729919433594 0.5 32 0.5 L 119 0.5 C 123.2527008056641 0.5 127.3779220581055 1.332780003547668 131.2610778808594 2.975219964981079 C 135.0119934082031 4.561739921569824 138.3807983398438 6.833079814910889 141.2738647460938 9.726140022277832 C 144.1669464111328 12.61919975280762 146.4382629394531 15.98799991607666 148.0247802734375 19.73893928527832 C 149.6672210693359 23.62210083007813 150.5 27.74729919433594 150.5 32 L 150.5 114 C 150.5 118.2527008056641 149.6672210693359 122.3779220581055 148.0247802734375 126.2610778808594 C 146.4382629394531 130.0119934082031 144.1669464111328 133.3807983398438 141.2738647460938 136.2738647460938 C 138.3807983398438 139.1669464111328 135.0119934082031 141.4382629394531 131.2610778808594 143.0247802734375 C 127.3779220581055 144.6672210693359 123.2527008056641 145.5 119 145.5 Z" stroke="none"/>
    <path d="M 32 1 C 27.81458282470703 1 23.75489807128906 1.819503784179688 19.93370056152344 3.435714721679688 C 16.24235534667969 4.997024536132813 12.927001953125 7.232376098632813 10.07968139648438 10.07968139648438 C 7.232376098632813 12.927001953125 4.997024536132813 16.24235534667969 3.435714721679688 19.93370056152344 C 1.819503784179688 23.75489807128906 1 27.81458282470703 1 32 L 1 114 C 1 118.185417175293 1.819503784179688 122.2451019287109 3.435714721679688 126.0662841796875 C 4.997024536132813 129.7576141357422 7.232376098632813 133.072998046875 10.07968139648438 135.9203033447266 C 12.927001953125 138.7676239013672 16.24235534667969 141.0029602050781 19.93370056152344 142.5642852783203 C 23.75489807128906 144.1804962158203 27.81458282470703 145 32 145 L 119 145 C 123.185417175293 145 127.2451019287109 144.1804962158203 131.0662841796875 142.5642852783203 C 134.7576141357422 141.0029602050781 138.072998046875 138.7676239013672 140.9203033447266 135.9203033447266 C 143.7676239013672 133.072998046875 146.0029602050781 129.7576141357422 147.5642852783203 126.0662841796875 C 149.1804962158203 122.2451019287109 150 118.185417175293 150 114 L 150 32 C 150 27.81458282470703 149.1804962158203 23.75489807128906 147.5642852783203 19.93370056152344 C 146.0029602050781 16.24235534667969 143.7676239013672 12.927001953125 140.9203033447266 10.07968139648438 C 138.072998046875 7.232376098632813 134.7576141357422 4.997024536132813 131.0662841796875 3.435714721679688 C 127.2451019287109 1.819503784179688 123.185417175293 1 119 1 L 32 1 M 32 0 L 119 0 C 136.673095703125 0 151 14.32687377929688 151 32 L 151 114 C 151 131.673095703125 136.673095703125 146 119 146 L 32 146 C 14.32687377929688 146 0 131.673095703125 0 114 L 0 32 C 0 14.32687377929688 14.32687377929688 0 32 0 Z" stroke="none" fill="#707070"/>
  </g>
</svg>
